<?xml version="1.0" encoding="UTF-8"?>
<svg xmlns="http://www.w3.org/2000/svg" xmlns:xlink="http://www.w3.org/1999/xlink" version="1.1" viewBox="0 0 420 420">
  <!-- Generator: Adobe Illustrator 30.5.1, SVG Export Plug-In . SVG Version: 2.1.4 Build 3)  -->
  <defs>
    <style>
      .st0 {
        fill: url(#_무제_그라디언트);
      }

      .st1 {
        fill: url(#_무제_그라디언트_2);
      }
    </style>
    <linearGradient id="_무제_그라디언트" data-name="무제 그라디언트" x1="202.21" y1="400.62" x2="219.54" y2="-23.55" gradientTransform="translate(0 419.89) scale(1 -1)" gradientUnits="userSpaceOnUse">
      <stop offset="0" stop-color="#b847ff"/>
      <stop offset=".16" stop-color="#874dff"/>
      <stop offset="1" stop-color="#3382ff"/>
    </linearGradient>
    <linearGradient id="_무제_그라디언트_2" data-name="무제 그라디언트 2" x1="350.71" y1="231.34" x2="336.03" y2="-5.57" gradientTransform="translate(0 419.89) scale(1 -1)" gradientUnits="userSpaceOnUse">
      <stop offset=".16" stop-color="#874dff"/>
      <stop offset="1" stop-color="#3382ff"/>
    </linearGradient>
  </defs>
  <g id="three">
    <path class="st0" d="M341.25,0c43.49,0,78.75,35.26,78.75,78.75,0,36.13-24.33,66.58-57.51,75.85-98.07,32.89-175.04,109.91-207.93,208.03-9.32,33.1-39.73,57.36-75.81,57.36C35.26,420,0,384.74,0,341.24c0-35.7,23.75-65.85,56.31-75.51,34.09-11.31,65.65-27.95,93.72-48.95,2.49-1.93,5.15-3.96,5.15-6.06,0-2.55-1.46-4.49-3.78-6.46-1.49-1.13-3-2.25-4.51-3.35-.79-.55-1.61-1.13-2.45-1.73-.18-.13-.35-.27-.51-.4-26.58-18.96-56.12-34.09-87.86-44.59C23.63,144.45,0,114.36,0,78.75,0,35.26,35.26,0,78.75,0c36.13,0,66.57,24.33,75.85,57.5,10.79,32.16,26.34,62.04,45.81,88.85,4.06,5.19,7.45,5.53,11.5,5.04,2.88-.35,6.73-4.11,8.85-6.87,19.45-27.2,34.89-57.51,45.48-90.11l.07.07C276.54,22.86,306.22,0,341.25,0Z"/>
  </g>
  <g id="round">
    <path class="st1" d="M341.25,420c43.49,0,78.75-35.26,78.75-78.75s-35.26-78.75-78.75-78.75-78.75,35.26-78.75,78.75,35.26,78.75,78.75,78.75Z"/>
  </g>
</svg>